<svg width="200" height="200" viewBox="0 0 200 200" fill="none" xmlns="http://www.w3.org/2000/svg"><rect width="200" height="200" rx="40" fill="#E11D48"/><path d="M100 40C72.3858 40 50 62.3858 50 90C50 123.75 100 165 100 165C100 165 150 123.75 150 90C150 62.3858 127.614 40 100 40Z" fill="white"/><path d="M92 70V105H96V70C96 67.79 97.79 66 100 66C102.21 66 104 67.79 104 70V105H108V70C108 63.37 102.63 58 96 58H104C97.37 58 92 63.37 92 70Z" fill="#E11D48"/><path d="M100 112V130" stroke="#E11D48" stroke-width="8" stroke-linecap="round"/></svg>
