<svg width="240" height="60" viewBox="0 0 240 60" fill="none" xmlns="http://www.w3.org/2000/svg"><g id="icon"><path d="M30 5C18.9543 5 10 13.9543 10 25C10 38.5 30 55 30 55C30 55 50 38.5 50 25C50 13.9543 41.0457 5 30 5Z" fill="#E11D48"/><path d="M26 18V32H28V18C28 16.8954 28.8954 16 30 16C31.1046 16 32 16.8954 32 18V32H34V18C34 15.2386 31.7614 13 29 13H31C28.2386 13 26 15.2386 26 18Z" fill="white"/><path d="M30 35C30 35 30 35 30 35V42" stroke="white" stroke-width="3" stroke-linecap="round"/></g><g id="text"><text x="60" y="38" font-family="Arial, sans-serif" font-weight="800" font-size="28" fill="#0F172A" letter-spacing="-0.5">PreOrder</text><text x="185" y="38" font-family="Arial, sans-serif" font-weight="400" font-size="28" fill="#E11D48">Dulu</text></g></svg>
